<mxfile modified="2020-03-13T07:13:07.034Z" host="app.diagrams.net" agent="Mozilla/5.0 (Windows NT 6.1; Win64; x64) AppleWebKit/537.36 (KHTML, like Gecko) Chrome/72.0.3626.121 Safari/537.36" etag="FkkYCldxdg2UM8EXPQ9f" version="12.8.4" type="github">
  <diagram id="sURR1SHCAla83oJiOlZ1" name="Page-1">
    <mxGraphModel dx="1372" dy="962" grid="1" gridSize="10" guides="1" tooltips="1" connect="1" arrows="1" fold="1" page="1" pageScale="1" pageWidth="3300" pageHeight="4681" math="0" shadow="0">
      <root>
        <mxCell id="0" />
        <mxCell id="1" parent="0" />
        <mxCell id="fpItD1PaSmq3RKMQFErg-48" value="" style="rounded=0;whiteSpace=wrap;html=1;fillColor=#dae8fc;strokeColor=#6c8ebf;" parent="1" vertex="1">
          <mxGeometry x="820" y="1080" width="1000" height="110" as="geometry" />
        </mxCell>
        <mxCell id="fpItD1PaSmq3RKMQFErg-70" value="" style="shape=cylinder;whiteSpace=wrap;html=1;boundedLbl=1;backgroundOutline=1;" parent="1" vertex="1">
          <mxGeometry x="1570" y="1140" width="25" height="40" as="geometry" />
        </mxCell>
        <mxCell id="fpItD1PaSmq3RKMQFErg-67" value="" style="shape=cylinder;whiteSpace=wrap;html=1;boundedLbl=1;backgroundOutline=1;" parent="1" vertex="1">
          <mxGeometry x="1310" y="1140" width="25" height="40" as="geometry" />
        </mxCell>
        <mxCell id="fpItD1PaSmq3RKMQFErg-66" value="" style="shape=cylinder;whiteSpace=wrap;html=1;boundedLbl=1;backgroundOutline=1;" parent="1" vertex="1">
          <mxGeometry x="1072.5" y="1140" width="25" height="40" as="geometry" />
        </mxCell>
        <mxCell id="fpItD1PaSmq3RKMQFErg-25" value="" style="rounded=0;whiteSpace=wrap;html=1;fillColor=#dae8fc;strokeColor=#6c8ebf;" parent="1" vertex="1">
          <mxGeometry x="820" y="810" width="1000" height="250" as="geometry" />
        </mxCell>
        <mxCell id="l3v4fueEr0LTtIeN0S5f-3" value="&lt;br&gt;&lt;br&gt;" style="rounded=0;whiteSpace=wrap;html=1;fillColor=#dae8fc;strokeColor=#6c8ebf;" parent="1" vertex="1">
          <mxGeometry x="820" y="510" width="570" height="280" as="geometry" />
        </mxCell>
        <mxCell id="l3v4fueEr0LTtIeN0S5f-1" value="&lt;span style=&quot;font-size: 14px&quot;&gt;用户接口&lt;/span&gt;" style="rounded=1;whiteSpace=wrap;html=1;" parent="1" vertex="1">
          <mxGeometry x="830" y="540" width="120" height="60" as="geometry" />
        </mxCell>
        <mxCell id="l3v4fueEr0LTtIeN0S5f-4" value="&lt;font style=&quot;font-size: 14px&quot;&gt;邀请活动接口&lt;/font&gt;" style="rounded=1;whiteSpace=wrap;html=1;" parent="1" vertex="1">
          <mxGeometry x="970" y="540" width="120" height="60" as="geometry" />
        </mxCell>
        <mxCell id="fpItD1PaSmq3RKMQFErg-1" value="&lt;font style=&quot;font-size: 14px&quot;&gt;好友助力接口&lt;/font&gt;" style="rounded=1;whiteSpace=wrap;html=1;" parent="1" vertex="1">
          <mxGeometry x="1110" y="540" width="120" height="60" as="geometry" />
        </mxCell>
        <mxCell id="fpItD1PaSmq3RKMQFErg-2" value="&lt;font style=&quot;font-size: 14px&quot;&gt;助力满抽接口&lt;/font&gt;" style="rounded=1;whiteSpace=wrap;html=1;" parent="1" vertex="1">
          <mxGeometry x="1250" y="540" width="120" height="60" as="geometry" />
        </mxCell>
        <mxCell id="fpItD1PaSmq3RKMQFErg-3" value="&lt;font style=&quot;font-size: 14px&quot;&gt;问答活动接口&lt;/font&gt;" style="rounded=1;whiteSpace=wrap;html=1;" parent="1" vertex="1">
          <mxGeometry x="830" y="626" width="120" height="60" as="geometry" />
        </mxCell>
        <mxCell id="fpItD1PaSmq3RKMQFErg-4" value="&lt;font style=&quot;font-size: 14px&quot;&gt;公益活动接口&lt;/font&gt;" style="rounded=1;whiteSpace=wrap;html=1;" parent="1" vertex="1">
          <mxGeometry x="970" y="626" width="120" height="60" as="geometry" />
        </mxCell>
        <mxCell id="fpItD1PaSmq3RKMQFErg-5" value="&lt;font style=&quot;font-size: 14px&quot;&gt;插件红包接口&lt;/font&gt;" style="rounded=1;whiteSpace=wrap;html=1;" parent="1" vertex="1">
          <mxGeometry x="1110" y="626" width="120" height="60" as="geometry" />
        </mxCell>
        <mxCell id="fpItD1PaSmq3RKMQFErg-6" value="&lt;font style=&quot;font-size: 14px&quot;&gt;QQ运动红包接口&lt;/font&gt;" style="rounded=1;whiteSpace=wrap;html=1;" parent="1" vertex="1">
          <mxGeometry x="1250" y="626" width="120" height="60" as="geometry" />
        </mxCell>
        <mxCell id="fpItD1PaSmq3RKMQFErg-7" value="&lt;font style=&quot;font-size: 14px&quot;&gt;QQ卡券红包接口&lt;/font&gt;" style="rounded=1;whiteSpace=wrap;html=1;" parent="1" vertex="1">
          <mxGeometry x="830" y="710" width="120" height="60" as="geometry" />
        </mxCell>
        <mxCell id="fpItD1PaSmq3RKMQFErg-8" value="&lt;font style=&quot;font-size: 14px&quot;&gt;赌博活动接口&lt;/font&gt;" style="rounded=1;whiteSpace=wrap;html=1;" parent="1" vertex="1">
          <mxGeometry x="970" y="710" width="120" height="60" as="geometry" />
        </mxCell>
        <mxCell id="fpItD1PaSmq3RKMQFErg-9" value="&lt;font style=&quot;font-size: 14px&quot;&gt;签到活动接口&lt;/font&gt;" style="rounded=1;whiteSpace=wrap;html=1;" parent="1" vertex="1">
          <mxGeometry x="1110" y="710" width="120" height="60" as="geometry" />
        </mxCell>
        <mxCell id="fpItD1PaSmq3RKMQFErg-10" value="&lt;font style=&quot;font-size: 14px&quot;&gt;。。。&lt;/font&gt;" style="rounded=1;whiteSpace=wrap;html=1;" parent="1" vertex="1">
          <mxGeometry x="1250" y="710" width="120" height="60" as="geometry" />
        </mxCell>
        <mxCell id="fpItD1PaSmq3RKMQFErg-11" value="接入层" style="text;html=1;strokeColor=none;fillColor=none;align=center;verticalAlign=middle;whiteSpace=wrap;rounded=0;" parent="1" vertex="1">
          <mxGeometry x="820" y="510" width="40" height="20" as="geometry" />
        </mxCell>
        <mxCell id="fpItD1PaSmq3RKMQFErg-12" value="" style="rounded=0;whiteSpace=wrap;html=1;fillColor=#dae8fc;strokeColor=#6c8ebf;" parent="1" vertex="1">
          <mxGeometry x="1410" y="440" width="410" height="350" as="geometry" />
        </mxCell>
        <mxCell id="fpItD1PaSmq3RKMQFErg-14" value="tars服务" style="text;html=1;strokeColor=none;fillColor=none;align=center;verticalAlign=middle;whiteSpace=wrap;rounded=0;" parent="1" vertex="1">
          <mxGeometry x="1410" y="440" width="60" height="20" as="geometry" />
        </mxCell>
        <mxCell id="fpItD1PaSmq3RKMQFErg-15" value="" style="rounded=0;whiteSpace=wrap;html=1;fillColor=#d5e8d4;strokeColor=#82b366;" parent="1" vertex="1">
          <mxGeometry x="1420" y="490" width="390" height="120" as="geometry" />
        </mxCell>
        <mxCell id="fpItD1PaSmq3RKMQFErg-16" value="" style="rounded=0;whiteSpace=wrap;html=1;fillColor=#d5e8d4;strokeColor=#82b366;" parent="1" vertex="1">
          <mxGeometry x="1419" y="650" width="390" height="115" as="geometry" />
        </mxCell>
        <mxCell id="fpItD1PaSmq3RKMQFErg-17" value="http接入层服务" style="text;html=1;strokeColor=none;fillColor=none;align=center;verticalAlign=middle;whiteSpace=wrap;rounded=0;" parent="1" vertex="1">
          <mxGeometry x="1419" y="490" width="100" height="20" as="geometry" />
        </mxCell>
        <mxCell id="fpItD1PaSmq3RKMQFErg-18" value="&lt;font style=&quot;font-size: 14px&quot;&gt;红包活动&lt;br&gt;&lt;/font&gt;" style="rounded=1;whiteSpace=wrap;html=1;" parent="1" vertex="1">
          <mxGeometry x="1430" y="520" width="110" height="60" as="geometry" />
        </mxCell>
        <mxCell id="fpItD1PaSmq3RKMQFErg-20" value="&lt;font style=&quot;font-size: 14px&quot;&gt;游戏活动&lt;br&gt;&lt;/font&gt;" style="rounded=1;whiteSpace=wrap;html=1;" parent="1" vertex="1">
          <mxGeometry x="1560" y="520" width="110" height="60" as="geometry" />
        </mxCell>
        <mxCell id="fpItD1PaSmq3RKMQFErg-21" value="&lt;font style=&quot;font-size: 14px&quot;&gt;问答二期&lt;br&gt;&lt;/font&gt;" style="rounded=1;whiteSpace=wrap;html=1;" parent="1" vertex="1">
          <mxGeometry x="1690" y="520" width="110" height="60" as="geometry" />
        </mxCell>
        <mxCell id="fpItD1PaSmq3RKMQFErg-22" value="tafgo微服务" style="text;html=1;strokeColor=none;fillColor=none;align=center;verticalAlign=middle;whiteSpace=wrap;rounded=0;" parent="1" vertex="1">
          <mxGeometry x="1425" y="650" width="70" height="20" as="geometry" />
        </mxCell>
        <mxCell id="fpItD1PaSmq3RKMQFErg-23" value="红包服务" style="rounded=1;whiteSpace=wrap;html=1;" parent="1" vertex="1">
          <mxGeometry x="1460" y="685" width="120" height="60" as="geometry" />
        </mxCell>
        <mxCell id="fpItD1PaSmq3RKMQFErg-24" value="微信服务" style="rounded=1;whiteSpace=wrap;html=1;" parent="1" vertex="1">
          <mxGeometry x="1640" y="685" width="120" height="60" as="geometry" />
        </mxCell>
        <mxCell id="fpItD1PaSmq3RKMQFErg-26" value="&lt;span style=&quot;font-size: 14px&quot;&gt;QQ登录&lt;/span&gt;" style="rounded=1;whiteSpace=wrap;html=1;" parent="1" vertex="1">
          <mxGeometry x="840" y="830" width="120" height="60" as="geometry" />
        </mxCell>
        <mxCell id="fpItD1PaSmq3RKMQFErg-27" value="&lt;span style=&quot;font-size: 14px&quot;&gt;微信登录&lt;/span&gt;" style="rounded=1;whiteSpace=wrap;html=1;" parent="1" vertex="1">
          <mxGeometry x="980" y="830" width="120" height="60" as="geometry" />
        </mxCell>
        <mxCell id="fpItD1PaSmq3RKMQFErg-28" value="组件" style="text;html=1;strokeColor=none;fillColor=none;align=center;verticalAlign=middle;whiteSpace=wrap;rounded=0;" parent="1" vertex="1">
          <mxGeometry x="820" y="810" width="40" height="20" as="geometry" />
        </mxCell>
        <mxCell id="fpItD1PaSmq3RKMQFErg-29" value="&lt;span style=&quot;font-size: 14px&quot;&gt;名字服务&lt;/span&gt;" style="rounded=1;whiteSpace=wrap;html=1;" parent="1" vertex="1">
          <mxGeometry x="1120" y="830" width="120" height="60" as="geometry" />
        </mxCell>
        <mxCell id="fpItD1PaSmq3RKMQFErg-30" value="&lt;span style=&quot;font-size: 14px&quot;&gt;CL5&lt;/span&gt;" style="rounded=1;whiteSpace=wrap;html=1;" parent="1" vertex="1">
          <mxGeometry x="1260" y="830" width="120" height="60" as="geometry" />
        </mxCell>
        <mxCell id="fpItD1PaSmq3RKMQFErg-31" value="&lt;span style=&quot;font-size: 14px&quot;&gt;天域防刷&lt;/span&gt;" style="rounded=1;whiteSpace=wrap;html=1;" parent="1" vertex="1">
          <mxGeometry x="1410" y="830" width="120" height="60" as="geometry" />
        </mxCell>
        <mxCell id="fpItD1PaSmq3RKMQFErg-32" value="&lt;span style=&quot;font-size: 14px&quot;&gt;诸葛防刷&lt;/span&gt;" style="rounded=1;whiteSpace=wrap;html=1;" parent="1" vertex="1">
          <mxGeometry x="1555" y="830" width="120" height="60" as="geometry" />
        </mxCell>
        <mxCell id="fpItD1PaSmq3RKMQFErg-33" value="&lt;span style=&quot;font-size: 14px&quot;&gt;日志&lt;/span&gt;" style="rounded=1;whiteSpace=wrap;html=1;" parent="1" vertex="1">
          <mxGeometry x="1690" y="830" width="120" height="60" as="geometry" />
        </mxCell>
        <mxCell id="fpItD1PaSmq3RKMQFErg-34" value="&lt;span style=&quot;font-size: 14px&quot;&gt;QQ红包&lt;/span&gt;" style="rounded=1;whiteSpace=wrap;html=1;" parent="1" vertex="1">
          <mxGeometry x="840" y="910" width="120" height="60" as="geometry" />
        </mxCell>
        <mxCell id="fpItD1PaSmq3RKMQFErg-35" value="&lt;span style=&quot;font-size: 14px&quot;&gt;微信红包&lt;/span&gt;" style="rounded=1;whiteSpace=wrap;html=1;" parent="1" vertex="1">
          <mxGeometry x="980" y="910" width="120" height="60" as="geometry" />
        </mxCell>
        <mxCell id="fpItD1PaSmq3RKMQFErg-36" value="&lt;span style=&quot;font-size: 14px&quot;&gt;QQ卡券&lt;/span&gt;" style="rounded=1;whiteSpace=wrap;html=1;" parent="1" vertex="1">
          <mxGeometry x="1120" y="910" width="120" height="60" as="geometry" />
        </mxCell>
        <mxCell id="fpItD1PaSmq3RKMQFErg-37" value="&lt;span style=&quot;font-size: 14px&quot;&gt;BOSS上报&lt;/span&gt;" style="rounded=1;whiteSpace=wrap;html=1;" parent="1" vertex="1">
          <mxGeometry x="1260" y="910" width="120" height="60" as="geometry" />
        </mxCell>
        <mxCell id="fpItD1PaSmq3RKMQFErg-38" value="&lt;span style=&quot;font-size: 14px&quot;&gt;图片校验&lt;/span&gt;" style="rounded=1;whiteSpace=wrap;html=1;" parent="1" vertex="1">
          <mxGeometry x="1410" y="910" width="120" height="60" as="geometry" />
        </mxCell>
        <mxCell id="fpItD1PaSmq3RKMQFErg-39" value="&lt;span style=&quot;font-size: 14px&quot;&gt;模调监控&lt;/span&gt;" style="rounded=1;whiteSpace=wrap;html=1;" parent="1" vertex="1">
          <mxGeometry x="1555" y="910" width="120" height="60" as="geometry" />
        </mxCell>
        <mxCell id="fpItD1PaSmq3RKMQFErg-40" value="&lt;span style=&quot;font-size: 14px&quot;&gt;流量雷锋奖品&lt;/span&gt;" style="rounded=1;whiteSpace=wrap;html=1;" parent="1" vertex="1">
          <mxGeometry x="1690" y="910" width="120" height="60" as="geometry" />
        </mxCell>
        <mxCell id="fpItD1PaSmq3RKMQFErg-41" value="&lt;span style=&quot;font-size: 14px&quot;&gt;金币&lt;/span&gt;" style="rounded=1;whiteSpace=wrap;html=1;" parent="1" vertex="1">
          <mxGeometry x="840" y="990" width="120" height="60" as="geometry" />
        </mxCell>
        <mxCell id="fpItD1PaSmq3RKMQFErg-42" value="&lt;span style=&quot;font-size: 14px&quot;&gt;mp直冲平台&lt;/span&gt;" style="rounded=1;whiteSpace=wrap;html=1;" parent="1" vertex="1">
          <mxGeometry x="980" y="990" width="120" height="60" as="geometry" />
        </mxCell>
        <mxCell id="fpItD1PaSmq3RKMQFErg-43" value="&lt;span style=&quot;font-size: 14px&quot;&gt;微信报警&lt;/span&gt;" style="rounded=1;whiteSpace=wrap;html=1;" parent="1" vertex="1">
          <mxGeometry x="1120" y="990" width="120" height="60" as="geometry" />
        </mxCell>
        <mxCell id="fpItD1PaSmq3RKMQFErg-44" value="&lt;span style=&quot;font-size: 14px&quot;&gt;兑吧服务&lt;/span&gt;" style="rounded=1;whiteSpace=wrap;html=1;" parent="1" vertex="1">
          <mxGeometry x="1260" y="990" width="120" height="60" as="geometry" />
        </mxCell>
        <mxCell id="fpItD1PaSmq3RKMQFErg-45" value="&lt;span style=&quot;font-size: 14px&quot;&gt;Redis&lt;/span&gt;" style="rounded=1;whiteSpace=wrap;html=1;" parent="1" vertex="1">
          <mxGeometry x="1410" y="990" width="120" height="60" as="geometry" />
        </mxCell>
        <mxCell id="fpItD1PaSmq3RKMQFErg-46" value="&lt;span style=&quot;font-size: 14px&quot;&gt;MySQL&lt;/span&gt;" style="rounded=1;whiteSpace=wrap;html=1;" parent="1" vertex="1">
          <mxGeometry x="1555" y="990" width="120" height="60" as="geometry" />
        </mxCell>
        <mxCell id="fpItD1PaSmq3RKMQFErg-47" value="&lt;span style=&quot;font-size: 14px&quot;&gt;。。。&lt;/span&gt;" style="rounded=1;whiteSpace=wrap;html=1;" parent="1" vertex="1">
          <mxGeometry x="1689" y="990" width="120" height="60" as="geometry" />
        </mxCell>
        <mxCell id="fpItD1PaSmq3RKMQFErg-49" value="存储层" style="text;html=1;strokeColor=none;fillColor=none;align=center;verticalAlign=middle;whiteSpace=wrap;rounded=0;" parent="1" vertex="1">
          <mxGeometry x="820" y="1080" width="40" height="20" as="geometry" />
        </mxCell>
        <mxCell id="fpItD1PaSmq3RKMQFErg-51" value="&lt;font style=&quot;font-size: 14px&quot;&gt;Redis&lt;/font&gt;" style="shape=cylinder;whiteSpace=wrap;html=1;boundedLbl=1;backgroundOutline=1;" parent="1" vertex="1">
          <mxGeometry x="1020" y="1100" width="60" height="80" as="geometry" />
        </mxCell>
        <mxCell id="fpItD1PaSmq3RKMQFErg-52" value="&lt;font style=&quot;font-size: 14px&quot;&gt;MySQL&lt;br&gt;(CDB)&lt;br&gt;&lt;/font&gt;" style="shape=cylinder;whiteSpace=wrap;html=1;boundedLbl=1;backgroundOutline=1;" parent="1" vertex="1">
          <mxGeometry x="1260" y="1100" width="60" height="80" as="geometry" />
        </mxCell>
        <mxCell id="fpItD1PaSmq3RKMQFErg-53" value="&lt;font style=&quot;font-size: 14px&quot;&gt;MySQL&lt;br&gt;(MDB)&lt;br&gt;&lt;/font&gt;" style="shape=cylinder;whiteSpace=wrap;html=1;boundedLbl=1;backgroundOutline=1;" parent="1" vertex="1">
          <mxGeometry x="1520" y="1100" width="60" height="80" as="geometry" />
        </mxCell>
        <mxCell id="fpItD1PaSmq3RKMQFErg-54" value="" style="rounded=0;whiteSpace=wrap;html=1;fillColor=#dae8fc;strokeColor=#6c8ebf;" parent="1" vertex="1">
          <mxGeometry x="820" y="1210" width="1000" height="100" as="geometry" />
        </mxCell>
        <mxCell id="fpItD1PaSmq3RKMQFErg-55" value="服务器" style="text;html=1;strokeColor=none;fillColor=none;align=center;verticalAlign=middle;whiteSpace=wrap;rounded=0;" parent="1" vertex="1">
          <mxGeometry x="820" y="1210" width="40" height="20" as="geometry" />
        </mxCell>
        <mxCell id="fpItD1PaSmq3RKMQFErg-56" value="&lt;font style=&quot;font-size: 14px&quot;&gt;C1实体机&lt;/font&gt;" style="rounded=1;whiteSpace=wrap;html=1;" parent="1" vertex="1">
          <mxGeometry x="1000" y="1230" width="120" height="60" as="geometry" />
        </mxCell>
        <mxCell id="fpItD1PaSmq3RKMQFErg-57" value="&lt;span style=&quot;color: rgb(68 , 68 , 68) ; text-align: left ; background-color: rgb(255 , 255 , 255)&quot;&gt;&lt;font style=&quot;font-size: 14px&quot;&gt;Hera Docker&lt;/font&gt;&lt;/span&gt;" style="rounded=1;whiteSpace=wrap;html=1;" parent="1" vertex="1">
          <mxGeometry x="1270" y="1230" width="120" height="60" as="geometry" />
        </mxCell>
        <mxCell id="fpItD1PaSmq3RKMQFErg-62" value="&lt;span style=&quot;color: rgb(68 , 68 , 68) ; text-align: left ; background-color: rgb(255 , 255 , 255)&quot;&gt;&lt;font style=&quot;font-size: 14px&quot;&gt;TAF&lt;/font&gt;&lt;/span&gt;" style="rounded=1;whiteSpace=wrap;html=1;" parent="1" vertex="1">
          <mxGeometry x="1550" y="1230" width="120" height="60" as="geometry" />
        </mxCell>
        <mxCell id="fpItD1PaSmq3RKMQFErg-63" value="" style="rounded=0;whiteSpace=wrap;html=1;fillColor=#dae8fc;strokeColor=#6c8ebf;" parent="1" vertex="1">
          <mxGeometry x="820" y="440" width="570" height="60" as="geometry" />
        </mxCell>
        <mxCell id="fpItD1PaSmq3RKMQFErg-64" value="代理层" style="text;html=1;strokeColor=none;fillColor=none;align=center;verticalAlign=middle;whiteSpace=wrap;rounded=0;" parent="1" vertex="1">
          <mxGeometry x="820" y="440" width="40" height="20" as="geometry" />
        </mxCell>
        <mxCell id="fpItD1PaSmq3RKMQFErg-65" value="&lt;font style=&quot;font-size: 14px&quot;&gt;Nginx代理&lt;/font&gt;" style="rounded=1;whiteSpace=wrap;html=1;" parent="1" vertex="1">
          <mxGeometry x="985" y="445" width="225" height="50" as="geometry" />
        </mxCell>
      </root>
    </mxGraphModel>
  </diagram>
</mxfile>
